<?xml version="1.0" encoding="UTF-8" standalone="no"?>
<!-- Created with Inkscape (http://www.inkscape.org/) -->

<svg
   width="100"
   height="100"
   viewBox="0 0 26.458333 26.458333"
   version="1.1"
   id="svg1"
   xmlns="http://www.w3.org/2000/svg"
   xmlns:svg="http://www.w3.org/2000/svg">
  <defs
     id="defs1" />
  <g
     id="layer1">
    <path
       style="fill:#189500;fill-opacity:1;stroke:none;stroke-width:0.529167;stroke-miterlimit:10"
       d="m 5.4827909,13.567584 c 0,0 0.8828223,1.161609 1.39393,1.719181 0.5111076,0.557571 1.5333228,1.579787 1.5333228,1.579787 0,0 1.3474653,0.32525 2.3696813,-0.09293 1.022215,-0.418178 3.159575,-3.252503 4.925219,-5.15754 1.765645,-1.905038 6.597935,-8.3635799 7.713079,-8.6423658 1.115144,-0.278786 1.347465,0.2787859 1.579787,0.6969648 0.232321,0.418179 1.192963,2.5487175 1.161608,3.1131102 C 26.112953,7.62015 25.276596,9.01408 24.300845,9.9433667 23.325094,10.872653 13.614049,22.395807 12.917084,22.86045 12.220119,23.325094 8.5959011,23.418022 7.8524717,23.046308 7.1090426,22.674593 4.0888609,19.933197 3.2525031,19.143304 2.4161451,18.35341 0.09292866,16.773624 0.32525032,15.007979 0.55757195,13.242334 1.9979662,11.709011 2.9737171,11.941333 c 0.975751,0.232321 2.5090738,1.626251 2.5090738,1.626251 z"
       id="path1" />
  </g>
</svg>
