<?xml version="1.0" encoding="UTF-8" standalone="no"?>
<!-- Created with Inkscape (http://www.inkscape.org/) -->

<svg
   width="100"
   height="100"
   viewBox="0 0 26.458333 26.458333"
   version="1.1"
   id="svg1"
   xmlns="http://www.w3.org/2000/svg"
   xmlns:svg="http://www.w3.org/2000/svg">
  <defs
     id="defs1" />
  <g
     id="layer1">
    <path
       style="fill:#00323a;fill-opacity:1;stroke-width:0.529167;stroke-miterlimit:10"
       d="m 16.591898,4.3040368 c -0.262842,-0.9199467 0.492828,-2.0698803 1.018512,-2.3655775 0.525684,-0.2956971 1.807039,-0.131421 2.332722,0.3285525 0.525684,0.4599734 1.544197,2.6284193 0.525684,3.3512348 -1.018512,0.7228152 -2.891261,0.3942627 -3.154103,0.5913942 -0.262842,0.1971316 -7.9986427,5.2643362 -8.6409289,5.8482332 -0.7228154,0.657105 0,1.478486 -0.1314209,2.00417 -0.1314209,0.525684 -1.2671965,0.879486 -0.5913944,1.37992 1.2157343,0.900256 8.1481002,4.238327 8.6080732,4.238327 0.459974,0 2.102736,-2.234157 3.121248,-1.347065 1.018513,0.887091 1.215644,3.154103 0.427119,4.632589 -0.788526,1.478486 -3.515511,1.807038 -4.336892,1.347065 C 14.949135,23.852906 15.54053,22.078723 15.146267,21.717315 14.752004,21.355908 7.8852582,17.314713 7.2938639,17.380423 6.7024696,17.446134 6.0125093,17.676121 5.3882599,17.5447 4.7640102,17.413279 2.9898271,16.000503 2.825551,14.981991 2.6612746,13.963478 3.0883928,11.53219 3.6797871,10.940796 c 0.5913946,-0.591394 2.1027356,-0.262842 2.6284195,-0.197132 0.525684,0.06571 1.1827888,0.328553 2.0041698,-0.427118 0.8213812,-0.7556705 6.5053376,-4.1726155 7.0638776,-4.5668785 0.558539,-0.394263 1.215644,-1.4456307 1.215644,-1.4456307 z"
       id="path1" />
  </g>
</svg>
